<mxfile host="app.diagrams.net" agent="Mozilla/5.0 (Windows NT 10.0; Win64; x64) AppleWebKit/537.36 (KHTML, like Gecko) Chrome/130.0.0.0 Safari/537.36" version="24.8.3">
  <diagram name="Страница — 1" id="PI4_lmw16I3PxHwNTuDc">
    <mxGraphModel dx="1461" dy="647" grid="1" gridSize="10" guides="1" tooltips="1" connect="1" arrows="1" fold="1" page="1" pageScale="1" pageWidth="827" pageHeight="1169" math="0" shadow="0">
      <root>
        <mxCell id="0" />
        <mxCell id="1" parent="0" />
        <mxCell id="txZ2K0fzOPYfNDK9gZEo-1" value="" style="whiteSpace=wrap;html=1;aspect=fixed;" vertex="1" parent="1">
          <mxGeometry x="130" y="50" width="580" height="580" as="geometry" />
        </mxCell>
        <mxCell id="txZ2K0fzOPYfNDK9gZEo-2" value="Покупатель" style="shape=umlActor;verticalLabelPosition=bottom;verticalAlign=top;html=1;outlineConnect=0;" vertex="1" parent="1">
          <mxGeometry x="30" y="280" width="70" height="140" as="geometry" />
        </mxCell>
        <mxCell id="txZ2K0fzOPYfNDK9gZEo-3" value="Продавец" style="shape=umlActor;verticalLabelPosition=bottom;verticalAlign=top;html=1;outlineConnect=0;" vertex="1" parent="1">
          <mxGeometry x="740" y="270" width="70" height="140" as="geometry" />
        </mxCell>
        <mxCell id="txZ2K0fzOPYfNDK9gZEo-4" value="Поиск товара" style="ellipse;whiteSpace=wrap;html=1;" vertex="1" parent="1">
          <mxGeometry x="210" y="280" width="100" height="60" as="geometry" />
        </mxCell>
        <mxCell id="txZ2K0fzOPYfNDK9gZEo-5" value="Заказ товара" style="ellipse;whiteSpace=wrap;html=1;" vertex="1" parent="1">
          <mxGeometry x="330" y="180" width="100" height="60" as="geometry" />
        </mxCell>
        <mxCell id="txZ2K0fzOPYfNDK9gZEo-6" value="include" style="html=1;verticalAlign=bottom;endArrow=open;dashed=1;endSize=8;curved=0;rounded=0;entryX=0.281;entryY=0.933;entryDx=0;entryDy=0;entryPerimeter=0;exitX=1;exitY=0;exitDx=0;exitDy=0;" edge="1" parent="1" source="txZ2K0fzOPYfNDK9gZEo-4" target="txZ2K0fzOPYfNDK9gZEo-5">
          <mxGeometry x="-0.0145" y="6" relative="1" as="geometry">
            <mxPoint x="450" y="330" as="sourcePoint" />
            <mxPoint x="370" y="330" as="targetPoint" />
            <mxPoint y="-1" as="offset" />
          </mxGeometry>
        </mxCell>
        <mxCell id="txZ2K0fzOPYfNDK9gZEo-7" value="Выбор способа оплаты" style="ellipse;whiteSpace=wrap;html=1;" vertex="1" parent="1">
          <mxGeometry x="480" y="90" width="100" height="60" as="geometry" />
        </mxCell>
        <mxCell id="txZ2K0fzOPYfNDK9gZEo-8" value="include" style="html=1;verticalAlign=bottom;endArrow=open;dashed=1;endSize=8;curved=0;rounded=0;entryX=0.281;entryY=0.933;entryDx=0;entryDy=0;entryPerimeter=0;exitX=1;exitY=0;exitDx=0;exitDy=0;" edge="1" parent="1" source="txZ2K0fzOPYfNDK9gZEo-5">
          <mxGeometry x="-0.0145" y="6" relative="1" as="geometry">
            <mxPoint x="430" y="193" as="sourcePoint" />
            <mxPoint x="493" y="140" as="targetPoint" />
            <mxPoint y="-1" as="offset" />
          </mxGeometry>
        </mxCell>
        <mxCell id="txZ2K0fzOPYfNDK9gZEo-9" value="Изменение данных о товаре" style="ellipse;whiteSpace=wrap;html=1;" vertex="1" parent="1">
          <mxGeometry x="400" y="380" width="100" height="60" as="geometry" />
        </mxCell>
        <mxCell id="txZ2K0fzOPYfNDK9gZEo-10" value="Поиск по производителю" style="ellipse;whiteSpace=wrap;html=1;" vertex="1" parent="1">
          <mxGeometry x="290" y="420" width="100" height="60" as="geometry" />
        </mxCell>
        <mxCell id="txZ2K0fzOPYfNDK9gZEo-11" value="Поиск по категориям" style="ellipse;whiteSpace=wrap;html=1;" vertex="1" parent="1">
          <mxGeometry x="160" y="420" width="100" height="60" as="geometry" />
        </mxCell>
        <mxCell id="txZ2K0fzOPYfNDK9gZEo-13" value="Extends" style="endArrow=block;endSize=16;endFill=0;html=1;rounded=0;entryX=0.974;entryY=0.659;entryDx=0;entryDy=0;entryPerimeter=0;" edge="1" parent="1" source="txZ2K0fzOPYfNDK9gZEo-9" target="txZ2K0fzOPYfNDK9gZEo-4">
          <mxGeometry width="160" relative="1" as="geometry">
            <mxPoint x="350" y="393.5" as="sourcePoint" />
            <mxPoint x="365" y="306.5" as="targetPoint" />
          </mxGeometry>
        </mxCell>
        <mxCell id="txZ2K0fzOPYfNDK9gZEo-15" value="Введение данных" style="ellipse;whiteSpace=wrap;html=1;" vertex="1" parent="1">
          <mxGeometry x="560" y="300" width="100" height="60" as="geometry" />
        </mxCell>
        <mxCell id="txZ2K0fzOPYfNDK9gZEo-16" value="Добавление товара" style="ellipse;whiteSpace=wrap;html=1;" vertex="1" parent="1">
          <mxGeometry x="570" y="410" width="100" height="60" as="geometry" />
        </mxCell>
        <mxCell id="txZ2K0fzOPYfNDK9gZEo-17" value="" style="endArrow=classic;html=1;rounded=0;entryX=0.4;entryY=1;entryDx=0;entryDy=0;entryPerimeter=0;" edge="1" parent="1" target="txZ2K0fzOPYfNDK9gZEo-4">
          <mxGeometry width="50" height="50" relative="1" as="geometry">
            <mxPoint x="230" y="420" as="sourcePoint" />
            <mxPoint x="440" y="310" as="targetPoint" />
          </mxGeometry>
        </mxCell>
        <mxCell id="txZ2K0fzOPYfNDK9gZEo-18" value="" style="endArrow=classic;html=1;rounded=0;entryX=0.637;entryY=1.044;entryDx=0;entryDy=0;entryPerimeter=0;" edge="1" parent="1" source="txZ2K0fzOPYfNDK9gZEo-10" target="txZ2K0fzOPYfNDK9gZEo-4">
          <mxGeometry width="50" height="50" relative="1" as="geometry">
            <mxPoint x="235" y="436" as="sourcePoint" />
            <mxPoint x="260" y="350" as="targetPoint" />
          </mxGeometry>
        </mxCell>
        <mxCell id="txZ2K0fzOPYfNDK9gZEo-19" value="Удаление товара" style="ellipse;whiteSpace=wrap;html=1;" vertex="1" parent="1">
          <mxGeometry x="450" y="230" width="100" height="60" as="geometry" />
        </mxCell>
        <mxCell id="txZ2K0fzOPYfNDK9gZEo-20" value="" style="endArrow=classic;html=1;rounded=0;exitX=0.5;exitY=0.5;exitDx=0;exitDy=0;exitPerimeter=0;entryX=1;entryY=0.5;entryDx=0;entryDy=0;" edge="1" parent="1" source="txZ2K0fzOPYfNDK9gZEo-3" target="txZ2K0fzOPYfNDK9gZEo-15">
          <mxGeometry width="50" height="50" relative="1" as="geometry">
            <mxPoint x="323" y="422" as="sourcePoint" />
            <mxPoint x="274" y="343" as="targetPoint" />
          </mxGeometry>
        </mxCell>
        <mxCell id="txZ2K0fzOPYfNDK9gZEo-21" value="" style="endArrow=classic;html=1;rounded=0;entryX=0.5;entryY=1;entryDx=0;entryDy=0;" edge="1" parent="1" source="txZ2K0fzOPYfNDK9gZEo-16" target="txZ2K0fzOPYfNDK9gZEo-15">
          <mxGeometry width="50" height="50" relative="1" as="geometry">
            <mxPoint x="333" y="432" as="sourcePoint" />
            <mxPoint x="284" y="353" as="targetPoint" />
          </mxGeometry>
        </mxCell>
        <mxCell id="txZ2K0fzOPYfNDK9gZEo-22" value="" style="endArrow=classic;html=1;rounded=0;entryX=0.061;entryY=0.696;entryDx=0;entryDy=0;entryPerimeter=0;exitX=1;exitY=0;exitDx=0;exitDy=0;" edge="1" parent="1" source="txZ2K0fzOPYfNDK9gZEo-9" target="txZ2K0fzOPYfNDK9gZEo-15">
          <mxGeometry width="50" height="50" relative="1" as="geometry">
            <mxPoint x="343" y="442" as="sourcePoint" />
            <mxPoint x="294" y="363" as="targetPoint" />
          </mxGeometry>
        </mxCell>
        <mxCell id="txZ2K0fzOPYfNDK9gZEo-23" value="" style="endArrow=classic;html=1;rounded=0;entryX=0;entryY=0;entryDx=0;entryDy=0;exitX=1;exitY=1;exitDx=0;exitDy=0;" edge="1" parent="1" source="txZ2K0fzOPYfNDK9gZEo-19" target="txZ2K0fzOPYfNDK9gZEo-15">
          <mxGeometry width="50" height="50" relative="1" as="geometry">
            <mxPoint x="530" y="280" as="sourcePoint" />
            <mxPoint x="304" y="373" as="targetPoint" />
          </mxGeometry>
        </mxCell>
        <mxCell id="txZ2K0fzOPYfNDK9gZEo-24" value="Extends" style="endArrow=block;endSize=16;endFill=0;html=1;rounded=0;entryX=0.983;entryY=0.378;entryDx=0;entryDy=0;entryPerimeter=0;exitX=0.041;exitY=0.663;exitDx=0;exitDy=0;exitPerimeter=0;" edge="1" parent="1" source="txZ2K0fzOPYfNDK9gZEo-19" target="txZ2K0fzOPYfNDK9gZEo-4">
          <mxGeometry width="160" relative="1" as="geometry">
            <mxPoint x="426" y="398" as="sourcePoint" />
            <mxPoint x="317" y="330" as="targetPoint" />
          </mxGeometry>
        </mxCell>
        <mxCell id="txZ2K0fzOPYfNDK9gZEo-25" value="" style="endArrow=classic;html=1;rounded=0;entryX=0.032;entryY=0.63;entryDx=0;entryDy=0;entryPerimeter=0;" edge="1" parent="1" source="txZ2K0fzOPYfNDK9gZEo-2" target="txZ2K0fzOPYfNDK9gZEo-4">
          <mxGeometry width="50" height="50" relative="1" as="geometry">
            <mxPoint x="240" y="430" as="sourcePoint" />
            <mxPoint x="260" y="350" as="targetPoint" />
          </mxGeometry>
        </mxCell>
        <mxCell id="txZ2K0fzOPYfNDK9gZEo-26" value="Онлайн-магазин" style="text;html=1;align=center;verticalAlign=middle;whiteSpace=wrap;rounded=0;" vertex="1" parent="1">
          <mxGeometry x="160" y="80" width="100" height="30" as="geometry" />
        </mxCell>
      </root>
    </mxGraphModel>
  </diagram>
</mxfile>
